<?xml version="1.0" encoding="UTF-8" standalone="no"?>
<!DOCTYPE svg PUBLIC "-//W3C//DTD SVG 20010904//EN"
              "http://www.w3.org/TR/2001/REC-SVG-20010904/DTD/svg10.dtd">

<svg xmlns="http://www.w3.org/2000/svg"
     width="10.39in" height="2.1in"
     viewBox="0 0 3117 630">
  <path id="Auswahl"
        fill="black" stroke="black" stroke-width="1"
        d="M 138.00,423.00
           C 138.00,423.00 145.31,402.00 145.31,402.00
             145.31,402.00 165.31,348.00 165.31,348.00
             165.31,348.00 229.32,175.00 229.32,175.00
             229.32,175.00 247.91,125.00 247.91,125.00
             247.91,125.00 251.51,119.00 251.51,119.00
             251.51,119.00 254.45,111.04 254.45,111.04
             258.11,104.14 263.75,102.01 271.00,102.00
             271.00,102.00 1202.00,102.00 1202.00,102.00
             1202.00,102.00 3065.00,102.00 3065.00,102.00
             3065.00,102.00 3065.00,153.00 3065.00,153.00
             3065.00,153.00 1221.00,153.00 1221.00,153.00
             1221.00,153.00 299.00,153.00 299.00,153.00
             296.78,153.00 293.30,152.78 291.41,154.02
             288.74,155.79 284.24,169.30 282.81,173.00
             282.81,173.00 257.81,239.00 257.81,239.00
             257.81,239.00 181.42,441.00 181.42,441.00
             181.42,441.00 164.00,487.00 164.00,487.00
             158.15,501.72 159.97,501.98 150.00,502.00
             150.00,502.00 125.00,502.00 125.00,502.00
             116.92,501.85 117.81,499.53 113.20,488.00
             113.20,488.00 95.40,443.00 95.40,443.00
             95.40,443.00 66.00,368.00 66.00,368.00
             64.26,363.64 59.04,348.08 55.73,346.02
             53.74,344.79 50.30,345.00 48.00,345.00
             48.00,345.00 10.00,345.00 10.00,345.00
             10.00,345.00 10.00,305.00 10.00,305.00
             10.00,305.00 86.00,305.00 86.00,305.00
             86.00,305.00 93.30,305.99 93.30,305.99
             93.30,305.99 97.19,314.00 97.19,314.00
             97.19,314.00 104.19,333.00 104.19,333.00
             104.19,333.00 127.58,396.00 127.58,396.00
             127.58,396.00 138.00,423.00 138.00,423.00 Z
           M 306.00,182.00
           C 306.00,182.00 690.00,182.00 690.00,182.00
             690.00,182.00 690.00,314.00 690.00,314.00
             689.95,345.97 661.96,373.95 630.00,374.00
             630.00,374.00 563.00,374.00 563.00,374.00
             563.00,374.00 647.00,458.00 647.00,458.00
             647.00,458.00 690.00,502.00 690.00,502.00
             690.00,502.00 601.00,502.00 601.00,502.00
             598.35,501.99 595.43,502.19 593.00,500.98
             590.32,499.64 586.24,495.24 584.00,493.00
             584.00,493.00 568.00,477.00 568.00,477.00
             568.00,477.00 493.00,402.00 493.00,402.00
             493.00,402.00 476.00,385.00 476.00,385.00
             468.62,377.62 467.66,374.02 457.00,374.00
             457.00,374.00 370.00,374.00 370.00,374.00
             370.00,374.00 370.00,502.00 370.00,502.00
             370.00,502.00 306.00,502.00 306.00,502.00
             306.00,502.00 306.00,310.00 306.00,310.00
             306.00,310.00 551.00,310.00 551.00,310.00
             551.00,310.00 576.00,310.00 576.00,310.00
             591.45,310.00 606.62,311.04 617.67,297.99
             620.32,294.86 623.08,289.96 624.21,286.00
             625.31,282.17 625.99,273.15 626.00,269.00
             626.00,269.00 626.00,246.00 626.00,246.00
             626.00,246.00 366.00,246.00 366.00,246.00
             334.49,245.95 306.15,218.77 306.00,187.00
             306.00,187.00 306.00,182.00 306.00,182.00 Z
           M 1586.00,182.00
           C 1586.00,182.00 1650.00,182.00 1650.00,182.00
             1650.00,182.00 1650.00,246.00 1650.00,246.00
             1650.00,246.00 1842.00,246.00 1842.00,246.00
             1842.00,252.49 1842.29,255.50 1840.76,262.00
             1834.46,288.81 1809.84,309.96 1782.00,310.00
             1782.00,310.00 1650.00,310.00 1650.00,310.00
             1650.00,310.00 1650.00,397.00 1650.00,397.00
             1650.01,403.59 1650.86,412.96 1653.47,419.00
             1660.01,434.17 1674.99,437.93 1690.00,438.00
             1690.00,438.00 1842.00,438.00 1842.00,438.00
             1842.00,444.49 1842.29,447.50 1840.76,454.00
             1834.46,480.81 1809.84,501.96 1782.00,502.00
             1782.00,502.00 1646.00,502.00 1646.00,502.00
             1613.69,501.95 1586.05,474.31 1586.00,442.00
             1586.00,442.00 1586.00,310.00 1586.00,310.00
             1586.00,310.00 1522.00,310.00 1522.00,310.00
             1522.00,310.00 1522.00,304.00 1522.00,304.00
             1522.27,281.54 1539.53,258.81 1560.00,250.45
             1570.25,246.26 1575.24,246.00 1586.00,246.00
             1586.00,246.00 1586.00,182.00 1586.00,182.00 Z
           M 1906.00,182.00
           C 1906.00,182.00 1970.00,182.00 1970.00,182.00
             1970.00,182.00 1970.00,438.00 1970.00,438.00
             1970.00,438.00 2290.00,438.00 2290.00,438.00
             2290.00,444.49 2290.29,447.50 2288.76,454.00
             2282.46,480.81 2257.84,501.96 2230.00,502.00
             2230.00,502.00 1906.00,502.00 1906.00,502.00
             1906.00,502.00 1906.00,182.00 1906.00,182.00 Z
           M 2738.00,182.00
           C 2738.00,182.00 2802.00,182.00 2802.00,182.00
             2802.00,182.00 2802.00,246.00 2802.00,246.00
             2802.00,246.00 3058.00,246.00 3058.00,246.00
             3058.00,246.00 3058.00,442.00 3058.00,442.00
             3057.95,473.97 3029.96,501.95 2998.00,502.00
             2998.00,502.00 2738.00,502.00 2738.00,502.00
             2738.00,502.00 2738.00,438.00 2738.00,438.00
             2738.00,438.00 2955.00,438.00 2955.00,438.00
             2971.63,437.80 2986.16,432.07 2991.90,415.00
             2993.28,410.88 2993.99,401.51 2994.00,397.00
             2994.00,397.00 2994.00,310.00 2994.00,310.00
             2994.00,310.00 2738.00,310.00 2738.00,310.00
             2738.00,310.00 2738.00,182.00 2738.00,182.00 Z
           M 754.00,246.00
           C 754.00,246.00 1074.00,246.00 1074.00,246.00
             1074.00,246.00 1074.00,442.00 1074.00,442.00
             1073.95,473.97 1045.96,501.95 1014.00,502.00
             1014.00,502.00 814.00,502.00 814.00,502.00
             781.69,501.95 754.05,474.31 754.00,442.00
             754.00,442.00 754.00,246.00 754.00,246.00 Z
           M 1138.00,246.00
           C 1138.00,246.00 1458.00,246.00 1458.00,246.00
             1458.00,246.00 1458.00,442.00 1458.00,442.00
             1457.95,473.97 1429.96,501.95 1398.00,502.00
             1398.00,502.00 1198.00,502.00 1198.00,502.00
             1165.69,501.95 1138.05,474.31 1138.00,442.00
             1138.00,442.00 1138.00,246.00 1138.00,246.00 Z
           M 2354.00,502.00
           C 2354.00,502.00 2354.00,306.00 2354.00,306.00
             2354.05,274.23 2382.23,246.05 2414.00,246.00
             2414.00,246.00 2674.00,246.00 2674.00,246.00
             2674.00,246.00 2674.00,502.00 2674.00,502.00
             2674.00,502.00 2610.00,502.00 2610.00,502.00
             2610.00,502.00 2610.00,469.00 2610.00,469.00
             2610.00,469.00 2609.00,450.00 2609.00,450.00
             2607.63,478.07 2577.11,501.96 2550.00,502.00
             2550.00,502.00 2354.00,502.00 2354.00,502.00 Z
           M 1010.00,310.00
           C 1010.00,310.00 818.00,310.00 818.00,310.00
             818.00,310.00 818.00,385.00 818.00,385.00
             818.00,396.23 817.08,413.24 822.98,423.00
             830.64,435.68 844.36,437.98 858.00,438.00
             858.00,438.00 971.00,438.00 971.00,438.00
             982.34,437.95 993.84,436.00 1001.67,426.96
             1008.47,419.12 1009.95,409.02 1010.00,399.00
             1010.00,399.00 1010.00,310.00 1010.00,310.00 Z
           M 1394.00,310.00
           C 1394.00,310.00 1202.00,310.00 1202.00,310.00
             1202.00,310.00 1202.00,385.00 1202.00,385.00
             1202.00,396.23 1201.08,413.24 1206.98,423.00
             1214.64,435.68 1228.36,437.98 1242.00,438.00
             1242.00,438.00 1355.00,438.00 1355.00,438.00
             1366.34,437.95 1377.84,436.00 1385.67,426.96
             1392.47,419.12 1393.95,409.02 1394.00,399.00
             1394.00,399.00 1394.00,310.00 1394.00,310.00 Z
           M 2610.00,310.00
           C 2610.00,310.00 2458.00,310.00 2458.00,310.00
             2453.85,310.01 2444.83,310.69 2441.00,311.79
             2422.59,317.05 2418.03,332.99 2418.00,350.00
             2418.00,350.00 2418.00,438.00 2418.00,438.00
             2418.00,438.00 2610.00,438.00 2610.00,438.00
             2610.00,438.00 2610.00,310.00 2610.00,310.00 Z
           M 2955.72,1348.41" />
</svg>
